<mxfile host="app.diagrams.net" modified="2022-12-05T05:56:23.991Z" agent="5.0 (Windows NT 10.0; Win64; x64) AppleWebKit/537.36 (KHTML, like Gecko) Chrome/107.0.0.0 Safari/537.36" version="20.6.0" etag="OcQ6g75dVE8s7YzM9zF4" type="github">
  <diagram id="jpaH01QrrNPYKbs0xLTw" name="Страница 1">
    <mxGraphModel dx="1233" dy="801" grid="1" gridSize="10" guides="1" tooltips="1" connect="1" arrows="1" fold="1" page="1" pageScale="1" pageWidth="827" pageHeight="1169" math="0" shadow="0">
      <root>
        <mxCell id="0" />
        <mxCell id="1" parent="0" />
        <mxCell id="X-IGHEl8Y6HBOu0wFlwu-5" value="RegistrationResolution" style="swimlane;fontStyle=1;align=center;verticalAlign=top;childLayout=stackLayout;horizontal=1;startSize=26;horizontalStack=0;resizeParent=1;resizeParentMax=0;resizeLast=0;collapsible=1;marginBottom=0;" vertex="1" parent="1">
          <mxGeometry x="330" y="370" width="180" height="138" as="geometry" />
        </mxCell>
        <mxCell id="X-IGHEl8Y6HBOu0wFlwu-6" value="+ TaskId" style="text;strokeColor=none;fillColor=none;align=left;verticalAlign=top;spacingLeft=4;spacingRight=4;overflow=hidden;rotatable=0;points=[[0,0.5],[1,0.5]];portConstraint=eastwest;" vertex="1" parent="X-IGHEl8Y6HBOu0wFlwu-5">
          <mxGeometry y="26" width="180" height="26" as="geometry" />
        </mxCell>
        <mxCell id="X-IGHEl8Y6HBOu0wFlwu-11" value="+ item: attribute" style="text;strokeColor=none;fillColor=none;align=left;verticalAlign=top;spacingLeft=4;spacingRight=4;overflow=hidden;rotatable=0;points=[[0,0.5],[1,0.5]];portConstraint=eastwest;" vertex="1" parent="X-IGHEl8Y6HBOu0wFlwu-5">
          <mxGeometry y="52" width="180" height="26" as="geometry" />
        </mxCell>
        <mxCell id="X-IGHEl8Y6HBOu0wFlwu-9" value="+ item: attribute" style="text;strokeColor=none;fillColor=none;align=left;verticalAlign=top;spacingLeft=4;spacingRight=4;overflow=hidden;rotatable=0;points=[[0,0.5],[1,0.5]];portConstraint=eastwest;" vertex="1" parent="X-IGHEl8Y6HBOu0wFlwu-5">
          <mxGeometry y="78" width="180" height="26" as="geometry" />
        </mxCell>
        <mxCell id="X-IGHEl8Y6HBOu0wFlwu-7" value="" style="line;strokeWidth=1;fillColor=none;align=left;verticalAlign=middle;spacingTop=-1;spacingLeft=3;spacingRight=3;rotatable=0;labelPosition=right;points=[];portConstraint=eastwest;strokeColor=inherit;" vertex="1" parent="X-IGHEl8Y6HBOu0wFlwu-5">
          <mxGeometry y="104" width="180" height="8" as="geometry" />
        </mxCell>
        <mxCell id="X-IGHEl8Y6HBOu0wFlwu-8" value="+ Link" style="text;strokeColor=none;fillColor=none;align=left;verticalAlign=top;spacingLeft=4;spacingRight=4;overflow=hidden;rotatable=0;points=[[0,0.5],[1,0.5]];portConstraint=eastwest;" vertex="1" parent="X-IGHEl8Y6HBOu0wFlwu-5">
          <mxGeometry y="112" width="180" height="26" as="geometry" />
        </mxCell>
        <mxCell id="X-IGHEl8Y6HBOu0wFlwu-13" value="ClinicalStudyResolution" style="swimlane;fontStyle=1;align=center;verticalAlign=top;childLayout=stackLayout;horizontal=1;startSize=26;horizontalStack=0;resizeParent=1;resizeParentMax=0;resizeLast=0;collapsible=1;marginBottom=0;" vertex="1" parent="1">
          <mxGeometry x="220" y="640" width="180" height="234" as="geometry" />
        </mxCell>
        <mxCell id="X-IGHEl8Y6HBOu0wFlwu-14" value="&lt;&lt; РКИ &gt;&gt;&#xa;+ ResolutionNumber" style="text;strokeColor=none;fillColor=none;align=left;verticalAlign=top;spacingLeft=4;spacingRight=4;overflow=hidden;rotatable=0;points=[[0,0.5],[1,0.5]];portConstraint=eastwest;" vertex="1" parent="X-IGHEl8Y6HBOu0wFlwu-13">
          <mxGeometry y="26" width="180" height="44" as="geometry" />
        </mxCell>
        <mxCell id="X-IGHEl8Y6HBOu0wFlwu-12" value="&lt;&lt; ЗКИ &gt;&gt;&#xa;+ StatementId : int" style="text;strokeColor=none;fillColor=none;align=left;verticalAlign=top;spacingLeft=4;spacingRight=4;overflow=hidden;rotatable=0;points=[[0,0.5],[1,0.5]];portConstraint=eastwest;" vertex="1" parent="X-IGHEl8Y6HBOu0wFlwu-13">
          <mxGeometry y="70" width="180" height="40" as="geometry" />
        </mxCell>
        <mxCell id="X-IGHEl8Y6HBOu0wFlwu-10" value="&lt;&lt; ЗВИРКИ &gt;&gt;&#xa;+ LastChangeStatement" style="text;strokeColor=none;fillColor=none;align=left;verticalAlign=top;spacingLeft=4;spacingRight=4;overflow=hidden;rotatable=0;points=[[0,0.5],[1,0.5]];portConstraint=eastwest;" vertex="1" parent="X-IGHEl8Y6HBOu0wFlwu-13">
          <mxGeometry y="110" width="180" height="38" as="geometry" />
        </mxCell>
        <mxCell id="X-IGHEl8Y6HBOu0wFlwu-15" value="+ item: attribute" style="text;strokeColor=none;fillColor=none;align=left;verticalAlign=top;spacingLeft=4;spacingRight=4;overflow=hidden;rotatable=0;points=[[0,0.5],[1,0.5]];portConstraint=eastwest;" vertex="1" parent="X-IGHEl8Y6HBOu0wFlwu-13">
          <mxGeometry y="148" width="180" height="26" as="geometry" />
        </mxCell>
        <mxCell id="X-IGHEl8Y6HBOu0wFlwu-16" value="+ item: attribute" style="text;strokeColor=none;fillColor=none;align=left;verticalAlign=top;spacingLeft=4;spacingRight=4;overflow=hidden;rotatable=0;points=[[0,0.5],[1,0.5]];portConstraint=eastwest;" vertex="1" parent="X-IGHEl8Y6HBOu0wFlwu-13">
          <mxGeometry y="174" width="180" height="26" as="geometry" />
        </mxCell>
        <mxCell id="X-IGHEl8Y6HBOu0wFlwu-17" value="" style="line;strokeWidth=1;fillColor=none;align=left;verticalAlign=middle;spacingTop=-1;spacingLeft=3;spacingRight=3;rotatable=0;labelPosition=right;points=[];portConstraint=eastwest;strokeColor=inherit;" vertex="1" parent="X-IGHEl8Y6HBOu0wFlwu-13">
          <mxGeometry y="200" width="180" height="8" as="geometry" />
        </mxCell>
        <mxCell id="X-IGHEl8Y6HBOu0wFlwu-18" value="+ Link" style="text;strokeColor=none;fillColor=none;align=left;verticalAlign=top;spacingLeft=4;spacingRight=4;overflow=hidden;rotatable=0;points=[[0,0.5],[1,0.5]];portConstraint=eastwest;" vertex="1" parent="X-IGHEl8Y6HBOu0wFlwu-13">
          <mxGeometry y="208" width="180" height="26" as="geometry" />
        </mxCell>
        <mxCell id="X-IGHEl8Y6HBOu0wFlwu-19" value="Extends" style="endArrow=block;endSize=16;endFill=0;html=1;rounded=0;fontSize=11;edgeStyle=orthogonalEdgeStyle;" edge="1" parent="1" source="X-IGHEl8Y6HBOu0wFlwu-13" target="X-IGHEl8Y6HBOu0wFlwu-5">
          <mxGeometry width="160" relative="1" as="geometry">
            <mxPoint x="240" y="610" as="sourcePoint" />
            <mxPoint x="400" y="610" as="targetPoint" />
          </mxGeometry>
        </mxCell>
      </root>
    </mxGraphModel>
  </diagram>
</mxfile>
